<svg xmlns="http://www.w3.org/2000/svg" xmlns:xlink="http://www.w3.org/1999/xlink" viewBox="0,0,256,256" width="48px" height="48px" fill-rule="nonzero"><g transform=""><g fill-opacity="0" fill="#dddddd" fill-rule="nonzero" stroke="none" stroke-width="1" stroke-linecap="butt" stroke-linejoin="miter" stroke-miterlimit="10" stroke-dasharray="" stroke-dashoffset="0" font-family="none" font-weight="none" font-size="none" text-anchor="none" style="mix-blend-mode: normal"><path d="M0,256v-256h256v256z" id="bgRectangle"></path></g><g fill="none" fill-rule="nonzero" stroke="none" stroke-width="1" stroke-linecap="butt" stroke-linejoin="miter" stroke-miterlimit="10" stroke-dasharray="" stroke-dashoffset="0" font-family="none" font-weight="none" font-size="none" text-anchor="none" style="mix-blend-mode: normal"><g transform="scale(5.33333,5.33333)"><path d="M42.858,11.975c-4.546,-2.624 -10.359,-1.065 -12.985,3.481l-6.623,11.471c-1.916,3.312 0.551,4.47 3.301,6.119l6.372,3.678c2.158,1.245 4.914,0.506 6.158,-1.649l6.807,-11.789c2.288,-3.961 0.931,-9.024 -3.03,-11.311z" fill="#e64a19"></path><path d="M35.365,16.723l-6.372,-3.678c-3.517,-1.953 -5.509,-2.082 -6.954,0.214l-9.398,16.275c-2.624,4.543 -1.062,10.353 3.481,12.971c3.961,2.287 9.024,0.93 11.311,-3.031l9.578,-16.59c1.25,-2.157 0.512,-4.916 -1.646,-6.161z" fill="#fbc02d"></path><path d="M36.591,8.356l-4.476,-2.585c-4.95,-2.857 -11.28,-1.163 -14.137,3.787l-8.521,14.759c-1.259,2.177 -0.511,4.964 1.666,6.22l5.012,2.894c2.475,1.43 5.639,0.582 7.069,-1.894l9.735,-16.86c2.017,-3.492 6.481,-4.689 9.974,-2.672z" fill="#43a047"></path><path d="M19.189,13.781l-4.838,-2.787c-2.158,-1.242 -4.914,-0.506 -6.158,1.646l-5.804,10.03c-2.857,4.936 -1.163,11.252 3.787,14.101l3.683,2.121l4.467,2.573l1.939,1.115c-3.442,-2.304 -4.535,-6.92 -2.43,-10.555l1.503,-2.596l5.504,-9.51c1.241,-2.145 0.502,-4.896 -1.653,-6.138z" fill="#1e88e5"></path></g></g></g></svg>